<?xml version="1.0" encoding="UTF-8" standalone="no"?>
<svg xmlns:svg="http://www.w3.org/2000/svg" xmlns="http://www.w3.org/2000/svg" width="272" height="258" viewBox="0 0 272.68 257.44">
  <g transform="translate(-14.39,-17.57)">
    <polygon fill="#ffffff" points="14.39,13.31 287.07,13.31 287.07,278.26 14.39,278.26 "/>
    <polygon fill="#008061" points="14.39,13.31 287.07,13.31 287.07,278.26 14.39,278.26 "/>
    <path fill="#ffffff" d="m 182.51,260.83 0,10.60 -65.40,0 0,-10.62 -49.49,0 c -4.83,0 -8.77,-5.05 -8.77,-11.28 L 38.14,40.08 c 0,-6.23 4.83,-11.29 10.80,-11.29 l 199.99,0 c 5.92,0 10.76,5.05 10.76,11.29 l -20.47,209.44 c 0,6.23 -3.93,11.28 -8.77,11.28 l -47.93,0.01 z"/>
    <path fill="#f5821f" d="m 74.56,59.45 133.88,0 c -13.18,4.94 -53.31,32.11 -63.33,50.38 l -70.43,0 -0.11,-50.38 z"/>
    <path fill="#ed1b2d" d="m 181.27,203.81 c -1.91,18.24 -1.98,40.46 -1.98,63.8 l -58.03,0 c 0,-23.33 0.97,-45.55 2.88,-63.8 l 57.13,0 z"/>
    <polygon fill="#008061" points="91.49,177.45 91.49,184.52 82.21,184.52 82.21,191.59 91.49,191.59 91.49,199.70 70.27,199.70 70.27,161.98 91.49,161.98 91.49,170.38 82.21,170.38 82.21,177.45 "/>
    <polygon fill="#008061" points="140.82,177.45 140.82,184.52 131.58,184.52 131.58,191.59 140.82,191.59 140.82,199.70 119.65,199.70 119.65,161.98 140.82,161.98 140.82,170.38 131.58,170.38 131.58,177.45 "/>
    <polygon fill="#008061" points="195.19,177.45 195.19,184.52 185.91,184.52 185.91,191.59 195.19,191.59 195.19,199.70 173.97,199.70 173.97,161.98 195.19,161.98 195.19,170.38 185.91,170.38 185.91,177.45 "/>
    <polygon fill="#008061" points="107.40,161.98 107.40,191.59 116.68,191.59 116.68,199.70 95.47,199.70 95.47,161.98 "/>
    <polygon fill="#008061" points="157.95,187.47 153.42,161.98 143.01,161.98 148.94,199.70 164.26,199.70 171.44,161.98 162.59,161.98 "/>
    <polygon fill="#008061" points="200.22,161.98 211.69,161.98 211.69,199.69 200.22,199.69 "/>
    <path fill="#008061" d="m 211.69,173.18 c 0.62,-4.13 6.47,-3.02 6.47,-0.66 l 0,27.18 11.50,0 0,-31.96 c 0,-6.77 -9.55,-9.50 -17.90,-3.53 l -0.07,8.98 z"/>
    <path fill="#ed1b2d" d="m 186.65,156.68 c 1.16,-14.43 20.94,-38.00 40.09,-44.19 l 0,-55.68 c -52.68,23.57 -86.93,59.22 -94.34,99.73 l 54.24,0.14 z"/>
  </g>
</svg>